<svg width="512" height="512" viewBox="0 0 512 512" fill="none" xmlns="http://www.w3.org/2000/svg">
<rect width="512" height="512" fill="white"/>
<path d="M313.328 77.5719L327.276 52L341.224 77.5719H313.328Z" fill="#1C1563" stroke="#1C1565"/>
<path d="M277.295 343.755V169.401C277.295 169.401 288.767 167.998 295.893 169.401C309.728 172.126 312.021 188.69 326.114 189.161C340.975 189.658 344.003 171.905 358.66 169.401C365.372 168.255 376.096 169.401 376.096 169.401V358.866C376.096 358.866 352.848 458.827 255.21 459.991C157.572 461.155 132 358.866 132 358.866V299.585H235.45V343.755C235.45 343.755 241.262 358.866 255.21 358.866C269.158 358.866 277.295 343.755 277.295 343.755Z" fill="#1C1563" stroke="#1C1565"/>
<path d="M345.874 88.0332H308.679L274.97 148.476H297.055C297.055 148.476 312.166 168.236 326.114 168.236C340.062 168.236 362.147 147.314 362.147 147.314H379.583L345.874 88.0332Z" fill="#AC8907" stroke="#AC8907"/>
</svg>
